<?xml version="1.0" encoding="UTF-8"?>
<svg enable-background="new 0 0 333.33 287.889" viewBox="0 0 333.33 287.889" xmlns="http://www.w3.org/2000/svg" xmlns:xlink="http://www.w3.org/1999/xlink">
 <defs>
  <linearGradient id="b">
   <stop stop-opacity=".50196" offset="0"/>
   <stop stop-opacity="0" offset="1"/>
  </linearGradient>
  <linearGradient id="a">
   <stop stop-color="#fff" stop-opacity=".65098" offset="0"/>
   <stop stop-color="#fff" stop-opacity="0" offset="1"/>
  </linearGradient>
  <linearGradient id="n" x2="333.33" gradientUnits="userSpaceOnUse">
   <stop stop-color="#0080ff" offset="0"/>
   <stop stop-color="#ff80ff" offset="1"/>
  </linearGradient>
  <linearGradient id="m" x2="0" y1="209.74" y2="198.22" gradientUnits="userSpaceOnUse" xlink:href="#a"/>
  <linearGradient id="d" x1="-316.06" x2="-310.07" y1="-13.58" y2="-8.9412" gradientUnits="userSpaceOnUse" xlink:href="#a"/>
  <linearGradient id="c" x1="-304.56" x2="-308.88" y1="-4.9814" y2="-8.2402" gradientUnits="userSpaceOnUse" xlink:href="#a"/>
  <linearGradient id="l" x2="0" y1="154.93" y2="143.42" gradientUnits="userSpaceOnUse" xlink:href="#a"/>
  <linearGradient id="k" x1="120.77" x2="124.81" y1="265.4" y2="274.59" gradientUnits="userSpaceOnUse" xlink:href="#a"/>
  <linearGradient id="j" x1="1.0607" x2="47.73" gradientUnits="userSpaceOnUse" xlink:href="#a"/>
  <linearGradient id="i" x1="-14.206" x2="47.73" y1="243.46" y2="243.52" gradientUnits="userSpaceOnUse" xlink:href="#a"/>
  <linearGradient id="h" x1="275.28" x2="318.62" gradientUnits="userSpaceOnUse" xlink:href="#b"/>
  <linearGradient id="g" x1="274.59" x2="274.8" y1="62.434" y2="190.43" gradientUnits="userSpaceOnUse" xlink:href="#b"/>
  <linearGradient id="f" x1="59.087" x2="102.43" gradientUnits="userSpaceOnUse" xlink:href="#b"/>
  <linearGradient id="e" x1="15.868" x2="15.953" y1="9.7692" y2="137.4" gradientUnits="userSpaceOnUse" xlink:href="#b"/>
 </defs>
 <path d="m318.63 191.34-42.85-127.63 6.892 1.386c-0.563 2.401 0.902 4.816 3.304 5.41 2.419 0.599 4.869-0.877 5.47-3.298s-0.878-4.868-3.301-5.469c-2.095-0.518-4.205 0.523-5.125 2.384l-58.157-17.148-54.361-16.029-0.509-9.298c5.801-0.21 10.444-4.966 10.444-10.818 1e-3 -5.985-4.855-10.838-10.84-10.838s-10.837 4.853-10.837 10.838c0 5.288 3.79 9.686 8.8 10.64l-0.477 8.708-53.88-10.838-60.542-12.179c0.08-2.094-1.315-4.028-3.429-4.552-2.419-0.599-4.867 0.879-5.466 3.299s0.877 4.869 3.297 5.468 4.865-0.876 5.468-3.292l5.889 1.736-42.537 127.16h-15.88s9.255 20.324 58.069 20.324 54.804-20.324 54.804-20.324h-10.446l-42.542-126.72 51.784 15.269 54.78 16.151-11.758 214.82s0.461 9.693-14.772 12.002-34.621 3.229-43.853 8.309-10.617 11.078-10.617 11.078h166.64s-1.386-6-10.615-11.078-28.621-6.001-43.854-8.309-14.772-12.002-14.772-12.002l-11.704-213.83 52.188 10.499 51.506 10.362-42.755 127.82h-11.623s9.255 20.324 58.068 20.324 54.804-20.324 54.804-20.324h-14.703zm-219.7-54.362h-79.558l39.709-118.71 39.849 118.71zm136.64 54.362 39.708-118.71 39.85 118.71h-79.558z" fill="url(#n)"/>
 <path d="m239.09 198.22s11.238 11.517 38.915 11.517 39.793-11.517 39.793-11.517h-78.708z" fill="url(#m)"/>
 <path d="m97.075 287.89c0.72253-0.60654 1.2294-1.117 2.1562-1.7812 1.8682-1.3389 4.1238-2.7346 6.7188-3.875 1.2974-0.57019 2.6718-1.0879 4.125-1.5s3.0021-0.72463 4.5938-0.90625c5.4142-1.0272 13.34-2.059 20.531-3.5938 3.5959-0.76735 6.9958-1.6526 9.8125-2.7188 1.4084-0.53306 2.6581-1.1208 3.7188-1.75s1.9515-1.3228 2.5625-2.0625c0.82116-1.3474 1.4668-2.6324 2-3.9062s0.94693-2.5325 1.25-3.75c0.60613-2.435 0.81037-4.78 0.84375-7.0938s-0.11158-4.575-0.1875-6.9062c-0.0131-0.40367 0.0395-0.84336 0.0312-1.25l-0.53125 9.7188s0.0754 3.3591-2.9062 6.5938c-2.0818 2.2584-5.6121 4.4569-11.875 5.4062-0.30507 0.0462-0.66047 0.0798-0.96875 0.125-15.086 2.2097-33.828 3.2092-42.875 8.1875-9.233 5.078-10.625 11.062-10.625 11.062h11.625z" fill="url(#k)"/>
 <path transform="matrix(1.5788 0 0 1.5788 660.11 24.93)" d="m-303.83-8.9412a6.8722 6.8722 0 1 1 -13.744 0 6.8722 6.8722 0 1 1 13.744 0z" fill="url(#c)"/>
 <path transform="matrix(1.1051 0 0 1.1051 511.46 18.837)" d="m-303.83-8.9412a6.8722 6.8722 0 1 1 -13.744 0 6.8722 6.8722 0 1 1 13.744 0z" fill="url(#d)"/>
 <path d="m17.058 143.42s11.238 11.517 38.915 11.517 39.793-11.517 39.793-11.517h-78.708z" fill="url(#l)"/>
 <g transform="matrix(.41895 0 0 .41895 -14.157 -7.9625)">
  <path transform="matrix(1.5788 0 0 1.5788 639.29 49.755)" d="m-303.83-8.9412c0 3.7954-3.0768 6.8722-6.8722 6.8722s-6.8722-3.0768-6.8722-6.8722 3.0768-6.8722 6.8722-6.8722 6.8722 3.0768 6.8722 6.8722z" fill="url(#c)"/>
  <path transform="matrix(1.1051 0 0 1.1051 490.64 43.662)" d="m-303.83-8.9412c0 3.7954-3.0768 6.8722-6.8722 6.8722s-6.8722-3.0768-6.8722-6.8722 3.0768-6.8722 6.8722-6.8722 6.8722 3.0768 6.8722 6.8722z" fill="url(#d)"/>
 </g>
 <g transform="matrix(.41895 0 0 .41895 224.75 51.155)">
  <path transform="matrix(1.5788 0 0 1.5788 639.29 49.755)" d="m-303.83-8.9412c0 3.7954-3.0768 6.8722-6.8722 6.8722s-6.8722-3.0768-6.8722-6.8722 3.0768-6.8722 6.8722-6.8722 6.8722 3.0768 6.8722 6.8722z" fill="url(#c)"/>
  <path transform="matrix(1.1051 0 0 1.1051 490.64 43.662)" d="m-303.83-8.9412c0 3.7954-3.0768 6.8722-6.8722 6.8722s-6.8722-3.0768-6.8722-6.8722 3.0768-6.8722 6.8722-6.8722 6.8722 3.0768 6.8722 6.8722z" fill="url(#d)"/>
 </g>
 <path transform="matrix(-.10595 .00482 -.13827 -3.0868 209.38 901.76)" d="m47.73 243.52c0 19.307-36.907 34.797-49.795 34.797s-12.448-15.535-12.448-34.842-19.01-34.927-6.1227-34.927 68.366 15.664 68.366 34.971z" fill="url(#i)"/>
 <path transform="matrix(.02554 -.10294 2.9745 .7381 -556.44 -137.66)" d="m47.73 243.52a23.335 34.958 0 1 1 -46.669 0 23.335 34.958 0 1 1 46.669 0z" fill="url(#j)"/>
 <path d="m275.3 63.621-0.46875-0.0937-42.75 127.81h3.5l39.719-118.72v-9z" fill="url(#g)"/>
 <path d="m275.28 63.621v9l39.844 118.72h3.5l-42.844-127.62-0.5-0.0937z" fill="url(#h)"/>
 <path d="m58.419 9.8267-42.551 127.16h3.5l39.719-118.72v-8.2461l-0.66797-0.19922z" fill="url(#e)"/>
 <path d="m59.087 18.272 39.844 118.72h3.5l-42.547-126.73-0.79688-0.23042v8.246z" fill="url(#f)"/>
</svg>
